<mxfile host="app.diagrams.net" agent="Mozilla/5.0 (X11; Linux x86_64) AppleWebKit/537.36 (KHTML, like Gecko) Chrome/133.0.0.0 Safari/537.36" version="28.0.7">
  <diagram name="Page-1" id="3gM9oJFOxD3vaW-yYZft">
    <mxGraphModel dx="1387" dy="772" grid="1" gridSize="10" guides="1" tooltips="1" connect="1" arrows="1" fold="1" page="1" pageScale="1" pageWidth="1100" pageHeight="850" math="0" shadow="0">
      <root>
        <mxCell id="0" />
        <mxCell id="1" parent="0" />
        <mxCell id="WkJBR_L_8m71jJSx_A0K-67" value="" style="rounded=0;whiteSpace=wrap;html=1;fillColor=#d5e8d4;strokeColor=#82b366;" vertex="1" parent="1">
          <mxGeometry x="680" y="250" width="409" height="570" as="geometry" />
        </mxCell>
        <mxCell id="WkJBR_L_8m71jJSx_A0K-64" value="" style="rounded=0;whiteSpace=wrap;html=1;fillColor=#f8cecc;strokeColor=#b85450;" vertex="1" parent="1">
          <mxGeometry x="20" y="270" width="350" height="1300" as="geometry" />
        </mxCell>
        <mxCell id="VJ7-hHtJsxSW6a5JSL_P-45" value="&lt;div&gt;&lt;br&gt;&lt;/div&gt;&lt;div&gt;&lt;br&gt;&lt;/div&gt;&lt;div&gt;&lt;br&gt;&lt;/div&gt;&lt;div&gt;&lt;br&gt;&lt;/div&gt;&lt;div&gt;&lt;br&gt;&lt;/div&gt;&lt;div&gt;&lt;br&gt;&lt;/div&gt;&lt;div&gt;&lt;br&gt;&lt;/div&gt;192.16.200.11&lt;div&gt;DEBIAN-SERV WEB&lt;br&gt;&lt;div&gt;&lt;br&gt;&lt;/div&gt;&lt;/div&gt;" style="whiteSpace=wrap;html=1;fillColor=#dae8fc;strokeColor=#6c8ebf;" parent="1" vertex="1">
          <mxGeometry x="710" y="400" width="128" height="170" as="geometry" />
        </mxCell>
        <mxCell id="WkJBR_L_8m71jJSx_A0K-28" value="&lt;div&gt;&lt;br&gt;&lt;/div&gt;&lt;div&gt;&lt;br&gt;&lt;/div&gt;&lt;div&gt;&lt;br&gt;&lt;/div&gt;&lt;div&gt;&lt;br&gt;&lt;/div&gt;&lt;div&gt;&lt;br&gt;&lt;/div&gt;&lt;div&gt;&lt;br&gt;&lt;/div&gt;&lt;div&gt;&lt;br&gt;&lt;/div&gt;192.16.240.192&lt;div&gt;&lt;div&gt;Routeur pfSense&lt;/div&gt;&lt;/div&gt;" style="whiteSpace=wrap;html=1;fillColor=#ffe6cc;strokeColor=#d79b00;" vertex="1" parent="1">
          <mxGeometry x="500" y="40" width="128" height="170" as="geometry" />
        </mxCell>
        <mxCell id="WkJBR_L_8m71jJSx_A0K-15" value="&lt;div&gt;&lt;br&gt;&lt;/div&gt;&lt;div&gt;&lt;br&gt;&lt;/div&gt;&lt;div&gt;&lt;br&gt;&lt;/div&gt;&lt;div&gt;&lt;br&gt;&lt;/div&gt;&lt;div&gt;&lt;br&gt;&lt;/div&gt;&lt;div&gt;&lt;br&gt;&lt;/div&gt;&lt;div&gt;&lt;br&gt;&lt;/div&gt;&lt;div&gt;10.0.0.2&lt;/div&gt;&lt;div&gt;&lt;div&gt;Routeur-VYOS&lt;/div&gt;&lt;/div&gt;" style="whiteSpace=wrap;html=1;fillColor=#f5f5f5;strokeColor=#666666;fontColor=#333333;" vertex="1" parent="1">
          <mxGeometry x="493" y="400" width="128" height="170" as="geometry" />
        </mxCell>
        <mxCell id="WkJBR_L_8m71jJSx_A0K-46" style="edgeStyle=orthogonalEdgeStyle;rounded=0;orthogonalLoop=1;jettySize=auto;html=1;exitX=1;exitY=0.5;exitDx=0;exitDy=0;" edge="1" parent="1" source="VJ7-hHtJsxSW6a5JSL_P-14" target="VJ7-hHtJsxSW6a5JSL_P-4">
          <mxGeometry relative="1" as="geometry" />
        </mxCell>
        <mxCell id="VJ7-hHtJsxSW6a5JSL_P-14" value="&lt;div&gt;&lt;br&gt;&lt;/div&gt;&lt;div&gt;&lt;br&gt;&lt;/div&gt;&lt;div&gt;&lt;br&gt;&lt;/div&gt;&lt;div&gt;&lt;span style=&quot;background-color: transparent; color: light-dark(rgb(0, 0, 0), rgb(255, 255, 255));&quot;&gt;&lt;br&gt;&lt;/span&gt;&lt;/div&gt;&lt;div&gt;&lt;span style=&quot;background-color: transparent; color: light-dark(rgb(0, 0, 0), rgb(255, 255, 255));&quot;&gt;&lt;br&gt;&lt;/span&gt;&lt;/div&gt;&lt;div&gt;&lt;span style=&quot;background-color: transparent; color: light-dark(rgb(0, 0, 0), rgb(255, 255, 255));&quot;&gt;&lt;br&gt;&lt;/span&gt;&lt;/div&gt;&lt;div&gt;&lt;span style=&quot;background-color: transparent; color: light-dark(rgb(0, 0, 0), rgb(255, 255, 255));&quot;&gt;192.16.2.101&lt;/span&gt;&lt;/div&gt;&lt;div&gt;PC-RH&lt;/div&gt;&lt;div&gt;TAG VLAN 2&lt;/div&gt;&lt;div&gt;&lt;br&gt;&lt;/div&gt;" style="whiteSpace=wrap;html=1;fillColor=none;strokeColor=#d79b00;" parent="1" vertex="1">
          <mxGeometry x="30" y="380" width="120" height="170" as="geometry" />
        </mxCell>
        <mxCell id="WkJBR_L_8m71jJSx_A0K-47" style="edgeStyle=orthogonalEdgeStyle;rounded=0;orthogonalLoop=1;jettySize=auto;html=1;exitX=0;exitY=0.5;exitDx=0;exitDy=0;" edge="1" parent="1" source="VJ7-hHtJsxSW6a5JSL_P-15">
          <mxGeometry relative="1" as="geometry">
            <mxPoint x="180" y="465" as="targetPoint" />
          </mxGeometry>
        </mxCell>
        <mxCell id="VJ7-hHtJsxSW6a5JSL_P-15" value="&lt;div&gt;&lt;br&gt;&lt;/div&gt;&lt;div&gt;&lt;br&gt;&lt;/div&gt;&lt;div&gt;&lt;br&gt;&lt;/div&gt;&lt;div&gt;&lt;br&gt;&lt;/div&gt;&lt;div&gt;&lt;br&gt;&lt;/div&gt;&lt;div&gt;&lt;br&gt;&lt;/div&gt;192.16.2.101&lt;div&gt;&lt;span style=&quot;background-color: transparent; color: light-dark(rgb(0, 0, 0), rgb(255, 255, 255));&quot;&gt;PC-DF&lt;/span&gt;&lt;/div&gt;&lt;div&gt;&lt;div&gt;TAG VLAN 3&lt;/div&gt;&lt;div&gt;&lt;br&gt;&lt;/div&gt;&lt;/div&gt;" style="whiteSpace=wrap;html=1;fillColor=none;strokeColor=#d6b656;" parent="1" vertex="1">
          <mxGeometry x="220" y="380" width="128" height="170" as="geometry" />
        </mxCell>
        <mxCell id="VJ7-hHtJsxSW6a5JSL_P-3" value="" style="shape=mxgraph.cisco.routers.router;sketch=0;html=1;pointerEvents=1;dashed=0;fillColor=#036897;strokeColor=#ffffff;strokeWidth=2;verticalLabelPosition=bottom;verticalAlign=top;align=center;outlineConnect=0;" parent="1" vertex="1">
          <mxGeometry x="525" y="87" width="78" height="53" as="geometry" />
        </mxCell>
        <mxCell id="VJ7-hHtJsxSW6a5JSL_P-4" value="" style="shape=mxgraph.cisco.switches.atm_fast_gigabit_etherswitch;sketch=0;html=1;pointerEvents=1;dashed=0;fillColor=#036897;strokeColor=#ffffff;strokeWidth=2;verticalLabelPosition=bottom;verticalAlign=top;align=center;outlineConnect=0;" parent="1" vertex="1">
          <mxGeometry x="170" y="290" width="64" height="64" as="geometry" />
        </mxCell>
        <mxCell id="VJ7-hHtJsxSW6a5JSL_P-7" value="" style="shape=flexArrow;endArrow=classic;startArrow=classic;html=1;rounded=0;" parent="1" source="VJ7-hHtJsxSW6a5JSL_P-4" target="WkJBR_L_8m71jJSx_A0K-18" edge="1">
          <mxGeometry width="100" height="100" relative="1" as="geometry">
            <mxPoint x="233.39" y="290" as="sourcePoint" />
            <mxPoint x="499.5" y="360.42488619119877" as="targetPoint" />
            <Array as="points" />
          </mxGeometry>
        </mxCell>
        <mxCell id="VJ7-hHtJsxSW6a5JSL_P-11" value="" style="shape=mxgraph.cisco.computers_and_peripherals.pc;sketch=0;html=1;pointerEvents=1;dashed=0;fillColor=#036897;strokeColor=#ffffff;strokeWidth=2;verticalLabelPosition=bottom;verticalAlign=top;align=center;outlineConnect=0;" parent="1" vertex="1">
          <mxGeometry x="51" y="400" width="78" height="70" as="geometry" />
        </mxCell>
        <mxCell id="VJ7-hHtJsxSW6a5JSL_P-12" value="" style="shape=mxgraph.cisco.computers_and_peripherals.pc;sketch=0;html=1;pointerEvents=1;dashed=0;fillColor=#036897;strokeColor=#ffffff;strokeWidth=2;verticalLabelPosition=bottom;verticalAlign=top;align=center;outlineConnect=0;" parent="1" vertex="1">
          <mxGeometry x="245" y="400" width="78" height="70" as="geometry" />
        </mxCell>
        <mxCell id="VJ7-hHtJsxSW6a5JSL_P-16" value="&lt;font style=&quot;font-size: 18px;&quot; face=&quot;Georgia&quot;&gt;VMBR 22&lt;/font&gt;&lt;div&gt;&lt;font style=&quot;font-size: 18px;&quot; face=&quot;Georgia&quot;&gt;VLANS&lt;/font&gt;&lt;/div&gt;&lt;div&gt;&lt;font style=&quot;font-size: 18px;&quot; face=&quot;Georgia&quot;&gt;192.16.0.0/16&lt;/font&gt;&lt;/div&gt;" style="text;html=1;align=center;verticalAlign=middle;resizable=0;points=[];autosize=1;strokeColor=none;fillColor=none;" parent="1" vertex="1">
          <mxGeometry x="30" y="282" width="120" height="80" as="geometry" />
        </mxCell>
        <mxCell id="VJ7-hHtJsxSW6a5JSL_P-26" value="" style="shape=flexArrow;endArrow=classic;startArrow=classic;html=1;rounded=0;entryX=1;entryY=0.5;entryDx=0;entryDy=0;entryPerimeter=0;" parent="1" source="VJ7-hHtJsxSW6a5JSL_P-27" target="WkJBR_L_8m71jJSx_A0K-18" edge="1">
          <mxGeometry width="100" height="100" relative="1" as="geometry">
            <mxPoint x="640" y="300" as="sourcePoint" />
            <mxPoint x="589.02" y="367.03999999999996" as="targetPoint" />
            <Array as="points">
              <mxPoint x="830" y="330" />
              <mxPoint x="780" y="350" />
              <mxPoint x="700" y="390" />
            </Array>
          </mxGeometry>
        </mxCell>
        <mxCell id="VJ7-hHtJsxSW6a5JSL_P-27" value="" style="shape=mxgraph.cisco.switches.atm_fast_gigabit_etherswitch;sketch=0;html=1;pointerEvents=1;dashed=0;fillColor=#036897;strokeColor=#ffffff;strokeWidth=2;verticalLabelPosition=bottom;verticalAlign=top;align=center;outlineConnect=0;" parent="1" vertex="1">
          <mxGeometry x="870" y="288" width="64" height="64" as="geometry" />
        </mxCell>
        <mxCell id="WkJBR_L_8m71jJSx_A0K-48" style="edgeStyle=orthogonalEdgeStyle;rounded=0;orthogonalLoop=1;jettySize=auto;html=1;exitX=1;exitY=0.5;exitDx=0;exitDy=0;" edge="1" parent="1" source="VJ7-hHtJsxSW6a5JSL_P-29">
          <mxGeometry relative="1" as="geometry">
            <mxPoint x="200" y="460" as="targetPoint" />
          </mxGeometry>
        </mxCell>
        <mxCell id="VJ7-hHtJsxSW6a5JSL_P-29" value="&lt;div&gt;&lt;br&gt;&lt;/div&gt;&lt;div&gt;&lt;br&gt;&lt;/div&gt;&lt;div&gt;&lt;br&gt;&lt;/div&gt;&lt;div&gt;&lt;br&gt;&lt;/div&gt;&lt;div&gt;&lt;br&gt;&lt;/div&gt;&lt;div&gt;&lt;br&gt;&lt;/div&gt;192.16.9.10&lt;div&gt;SRV-ADDS&lt;/div&gt;&lt;div&gt;TAG VLAN 9&lt;/div&gt;" style="whiteSpace=wrap;html=1;fillColor=none;strokeColor=#6c8ebf;" parent="1" vertex="1">
          <mxGeometry x="30" y="570" width="128" height="170" as="geometry" />
        </mxCell>
        <mxCell id="VJ7-hHtJsxSW6a5JSL_P-30" value="" style="shape=mxgraph.cisco.computers_and_peripherals.pc;sketch=0;html=1;pointerEvents=1;dashed=0;fillColor=#036897;strokeColor=#ffffff;strokeWidth=2;verticalLabelPosition=bottom;verticalAlign=top;align=center;outlineConnect=0;" parent="1" vertex="1">
          <mxGeometry x="55" y="590" width="78" height="70" as="geometry" />
        </mxCell>
        <mxCell id="VJ7-hHtJsxSW6a5JSL_P-32" value="&lt;font style=&quot;font-size: 18px;&quot; face=&quot;Georgia&quot;&gt;VMBR 25&lt;/font&gt;&lt;div&gt;&lt;font style=&quot;font-size: 18px;&quot; face=&quot;Georgia&quot;&gt;DMZ&lt;/font&gt;&lt;/div&gt;&lt;div&gt;&lt;font style=&quot;font-size: 18px;&quot; face=&quot;Georgia&quot;&gt;192.168.200.0/24&lt;/font&gt;&lt;/div&gt;" style="text;html=1;align=center;verticalAlign=middle;resizable=0;points=[];autosize=1;strokeColor=none;fillColor=none;" parent="1" vertex="1">
          <mxGeometry x="939" y="288" width="150" height="80" as="geometry" />
        </mxCell>
        <mxCell id="WkJBR_L_8m71jJSx_A0K-49" style="edgeStyle=orthogonalEdgeStyle;rounded=0;orthogonalLoop=1;jettySize=auto;html=1;exitX=0;exitY=0.5;exitDx=0;exitDy=0;" edge="1" parent="1" source="VJ7-hHtJsxSW6a5JSL_P-33">
          <mxGeometry relative="1" as="geometry">
            <mxPoint x="200" y="860" as="targetPoint" />
          </mxGeometry>
        </mxCell>
        <mxCell id="VJ7-hHtJsxSW6a5JSL_P-33" value="&lt;div&gt;&lt;br&gt;&lt;/div&gt;&lt;div&gt;&lt;br&gt;&lt;/div&gt;&lt;div&gt;&lt;br&gt;&lt;/div&gt;&lt;div&gt;&lt;br&gt;&lt;/div&gt;&lt;div&gt;&lt;br&gt;&lt;/div&gt;&lt;div&gt;&lt;br&gt;&lt;/div&gt;&lt;div&gt;&lt;br&gt;&lt;/div&gt;192.16.9.20&lt;div&gt;FSMO-SCHEMA&lt;/div&gt;&lt;div&gt;TAG VLAN 9&lt;/div&gt;" style="whiteSpace=wrap;html=1;fillColor=none;strokeColor=#6c8ebf;" parent="1" vertex="1">
          <mxGeometry x="220" y="570" width="128" height="170" as="geometry" />
        </mxCell>
        <mxCell id="VJ7-hHtJsxSW6a5JSL_P-34" value="" style="shape=mxgraph.cisco.computers_and_peripherals.pc;sketch=0;html=1;pointerEvents=1;dashed=0;fillColor=#036897;strokeColor=#ffffff;strokeWidth=2;verticalLabelPosition=bottom;verticalAlign=top;align=center;outlineConnect=0;" parent="1" vertex="1">
          <mxGeometry x="250" y="600" width="78" height="70" as="geometry" />
        </mxCell>
        <mxCell id="WkJBR_L_8m71jJSx_A0K-50" style="edgeStyle=orthogonalEdgeStyle;rounded=0;orthogonalLoop=1;jettySize=auto;html=1;exitX=1;exitY=0.5;exitDx=0;exitDy=0;" edge="1" parent="1" source="VJ7-hHtJsxSW6a5JSL_P-35">
          <mxGeometry relative="1" as="geometry">
            <mxPoint x="210" y="855" as="targetPoint" />
            <Array as="points">
              <mxPoint x="184" y="855" />
              <mxPoint x="184" y="856" />
            </Array>
          </mxGeometry>
        </mxCell>
        <mxCell id="VJ7-hHtJsxSW6a5JSL_P-35" value="&lt;div&gt;&lt;br&gt;&lt;/div&gt;&lt;div&gt;&lt;br&gt;&lt;/div&gt;&lt;div&gt;&lt;br&gt;&lt;/div&gt;&lt;div&gt;&lt;br&gt;&lt;/div&gt;&lt;div&gt;&lt;br&gt;&lt;/div&gt;&lt;div&gt;&lt;br&gt;&lt;/div&gt;&lt;div&gt;&lt;br&gt;&lt;/div&gt;192.16.9.21&lt;div&gt;FSMO-DOMAIN&lt;/div&gt;&lt;div&gt;TAG VLAN 9&lt;/div&gt;" style="whiteSpace=wrap;html=1;fillColor=none;strokeColor=#6c8ebf;" parent="1" vertex="1">
          <mxGeometry x="30" y="770" width="128" height="170" as="geometry" />
        </mxCell>
        <mxCell id="VJ7-hHtJsxSW6a5JSL_P-36" value="" style="shape=mxgraph.cisco.computers_and_peripherals.pc;sketch=0;html=1;pointerEvents=1;dashed=0;fillColor=#036897;strokeColor=#ffffff;strokeWidth=2;verticalLabelPosition=bottom;verticalAlign=top;align=center;outlineConnect=0;" parent="1" vertex="1">
          <mxGeometry x="55" y="790" width="78" height="70" as="geometry" />
        </mxCell>
        <mxCell id="WkJBR_L_8m71jJSx_A0K-51" style="edgeStyle=orthogonalEdgeStyle;rounded=0;orthogonalLoop=1;jettySize=auto;html=1;exitX=0;exitY=0.5;exitDx=0;exitDy=0;" edge="1" parent="1" source="VJ7-hHtJsxSW6a5JSL_P-37">
          <mxGeometry relative="1" as="geometry">
            <mxPoint x="200" y="855" as="targetPoint" />
          </mxGeometry>
        </mxCell>
        <mxCell id="VJ7-hHtJsxSW6a5JSL_P-37" value="&lt;div&gt;&lt;br&gt;&lt;/div&gt;&lt;div&gt;&lt;br&gt;&lt;/div&gt;&lt;div&gt;&lt;br&gt;&lt;/div&gt;&lt;div&gt;&lt;br&gt;&lt;/div&gt;&lt;div&gt;&lt;br&gt;&lt;/div&gt;&lt;div&gt;&lt;br&gt;&lt;/div&gt;&lt;div&gt;&lt;br&gt;&lt;/div&gt;192.16.9.24&lt;div&gt;FSMO-INFRASTRUCTURE&lt;/div&gt;&lt;div&gt;TAG VLAN 9&lt;/div&gt;" style="whiteSpace=wrap;html=1;fillColor=none;strokeColor=#6c8ebf;" parent="1" vertex="1">
          <mxGeometry x="220" y="770" width="128" height="170" as="geometry" />
        </mxCell>
        <mxCell id="VJ7-hHtJsxSW6a5JSL_P-39" value="" style="shape=mxgraph.cisco.computers_and_peripherals.pc;sketch=0;html=1;pointerEvents=1;dashed=0;fillColor=#036897;strokeColor=#ffffff;strokeWidth=2;verticalLabelPosition=bottom;verticalAlign=top;align=center;outlineConnect=0;" parent="1" vertex="1">
          <mxGeometry x="245" y="790" width="78" height="70" as="geometry" />
        </mxCell>
        <mxCell id="WkJBR_L_8m71jJSx_A0K-53" style="edgeStyle=orthogonalEdgeStyle;rounded=0;orthogonalLoop=1;jettySize=auto;html=1;exitX=1;exitY=0.5;exitDx=0;exitDy=0;" edge="1" parent="1">
          <mxGeometry relative="1" as="geometry">
            <mxPoint x="200" y="849" as="targetPoint" />
            <mxPoint x="158" y="1054" as="sourcePoint" />
          </mxGeometry>
        </mxCell>
        <mxCell id="VJ7-hHtJsxSW6a5JSL_P-40" value="&lt;div&gt;&lt;br&gt;&lt;/div&gt;&lt;div&gt;&lt;br&gt;&lt;/div&gt;&lt;div&gt;&lt;br&gt;&lt;/div&gt;&lt;div&gt;&lt;br&gt;&lt;/div&gt;&lt;div&gt;&lt;br&gt;&lt;/div&gt;&lt;div&gt;&lt;br&gt;&lt;/div&gt;&lt;div&gt;&lt;span style=&quot;background-color: transparent; color: light-dark(rgb(0, 0, 0), rgb(255, 255, 255));&quot;&gt;192.16.9.25&lt;/span&gt;&lt;/div&gt;&lt;div&gt;&lt;span style=&quot;background-color: transparent;&quot;&gt;SRV-CORE REDONDANCE&lt;/span&gt;&lt;/div&gt;&lt;span style=&quot;background-color: transparent; color: light-dark(rgb(0, 0, 0), rgb(255, 255, 255));&quot;&gt;TAG VLAN 9&lt;/span&gt;" style="whiteSpace=wrap;html=1;fillColor=none;strokeColor=#6c8ebf;" parent="1" vertex="1">
          <mxGeometry x="30" y="970" width="128" height="170" as="geometry" />
        </mxCell>
        <mxCell id="WkJBR_L_8m71jJSx_A0K-57" style="edgeStyle=orthogonalEdgeStyle;rounded=0;orthogonalLoop=1;jettySize=auto;html=1;exitX=0;exitY=0.5;exitDx=0;exitDy=0;" edge="1" parent="1" source="VJ7-hHtJsxSW6a5JSL_P-42">
          <mxGeometry relative="1" as="geometry">
            <mxPoint x="200" y="1055" as="targetPoint" />
          </mxGeometry>
        </mxCell>
        <mxCell id="VJ7-hHtJsxSW6a5JSL_P-42" value="&lt;div&gt;&lt;br&gt;&lt;/div&gt;&lt;div&gt;&lt;br&gt;&lt;/div&gt;&lt;div&gt;&lt;br&gt;&lt;/div&gt;&lt;div&gt;&lt;br&gt;&lt;/div&gt;&lt;div&gt;&lt;br&gt;&lt;/div&gt;&lt;div&gt;&lt;br&gt;&lt;/div&gt;192.16.9.26&lt;br&gt;&lt;div&gt;&lt;span style=&quot;background-color: transparent;&quot;&gt;SRV-GLPI&lt;/span&gt;&lt;/div&gt;&lt;div&gt;&lt;span style=&quot;background-color: transparent; color: light-dark(rgb(0, 0, 0), rgb(255, 255, 255));&quot;&gt;TAG VLAN 9&lt;/span&gt;&lt;/div&gt;" style="whiteSpace=wrap;html=1;fillColor=none;strokeColor=#6c8ebf;" parent="1" vertex="1">
          <mxGeometry x="220" y="970" width="128" height="170" as="geometry" />
        </mxCell>
        <mxCell id="VJ7-hHtJsxSW6a5JSL_P-44" value="" style="edgeStyle=orthogonalEdgeStyle;rounded=0;orthogonalLoop=1;jettySize=auto;html=1;" parent="1" edge="1" target="VJ7-hHtJsxSW6a5JSL_P-27">
          <mxGeometry relative="1" as="geometry">
            <mxPoint x="950" y="470" as="sourcePoint" />
            <mxPoint x="900" y="360" as="targetPoint" />
            <Array as="points">
              <mxPoint x="901" y="470" />
              <mxPoint x="901" y="380" />
              <mxPoint x="900" y="380" />
            </Array>
          </mxGeometry>
        </mxCell>
        <mxCell id="VJ7-hHtJsxSW6a5JSL_P-46" value="" style="endArrow=none;html=1;rounded=0;exitX=1.016;exitY=0.412;exitDx=0;exitDy=0;exitPerimeter=0;" parent="1" source="VJ7-hHtJsxSW6a5JSL_P-45" edge="1">
          <mxGeometry width="50" height="50" relative="1" as="geometry">
            <mxPoint x="840" y="480" as="sourcePoint" />
            <mxPoint x="900" y="470" as="targetPoint" />
          </mxGeometry>
        </mxCell>
        <mxCell id="VJ7-hHtJsxSW6a5JSL_P-47" value="&lt;div&gt;&lt;br&gt;&lt;/div&gt;&lt;div&gt;&lt;br&gt;&lt;/div&gt;&lt;div&gt;&lt;br&gt;&lt;/div&gt;&lt;div&gt;&lt;br&gt;&lt;/div&gt;&lt;div&gt;&lt;br&gt;&lt;/div&gt;&lt;div&gt;&lt;br&gt;&lt;/div&gt;&lt;div&gt;&lt;br&gt;&lt;/div&gt;192.16.200.87&lt;div&gt;&lt;span style=&quot;background-color: transparent; color: light-dark(rgb(0, 0, 0), rgb(255, 255, 255));&quot;&gt;Ubuntu-SYSLOG&lt;/span&gt;&lt;/div&gt;&lt;div&gt;&lt;br&gt;&lt;/div&gt;" style="whiteSpace=wrap;html=1;fillColor=#dae8fc;strokeColor=#6c8ebf;" parent="1" vertex="1">
          <mxGeometry x="950" y="400" width="128" height="170" as="geometry" />
        </mxCell>
        <mxCell id="VJ7-hHtJsxSW6a5JSL_P-50" value="" style="shape=mxgraph.cisco.computers_and_peripherals.terminal;sketch=0;html=1;pointerEvents=1;dashed=0;fillColor=#036897;strokeColor=#ffffff;strokeWidth=2;verticalLabelPosition=bottom;verticalAlign=top;align=center;outlineConnect=0;" parent="1" vertex="1">
          <mxGeometry x="743.5" y="440" width="61" height="54" as="geometry" />
        </mxCell>
        <mxCell id="VJ7-hHtJsxSW6a5JSL_P-52" value="" style="shape=mxgraph.cisco.computers_and_peripherals.pc;sketch=0;html=1;pointerEvents=1;dashed=0;fillColor=#036897;strokeColor=#ffffff;strokeWidth=2;verticalLabelPosition=bottom;verticalAlign=top;align=center;outlineConnect=0;" parent="1" vertex="1">
          <mxGeometry x="975" y="430" width="78" height="70" as="geometry" />
        </mxCell>
        <mxCell id="WkJBR_L_8m71jJSx_A0K-58" style="edgeStyle=orthogonalEdgeStyle;rounded=0;orthogonalLoop=1;jettySize=auto;html=1;exitX=1;exitY=0.5;exitDx=0;exitDy=0;" edge="1" parent="1" source="VJ7-hHtJsxSW6a5JSL_P-54">
          <mxGeometry relative="1" as="geometry">
            <mxPoint x="900" y="460" as="targetPoint" />
          </mxGeometry>
        </mxCell>
        <mxCell id="VJ7-hHtJsxSW6a5JSL_P-54" value="&lt;div&gt;&lt;br&gt;&lt;/div&gt;&lt;div&gt;&lt;br&gt;&lt;/div&gt;&lt;div&gt;&lt;br&gt;&lt;/div&gt;&lt;div&gt;&lt;br&gt;&lt;/div&gt;&lt;div&gt;&lt;br&gt;&lt;/div&gt;&lt;div&gt;&lt;br&gt;&lt;/div&gt;&lt;div&gt;&lt;br&gt;&lt;/div&gt;192.16.200.208&lt;div&gt;&lt;div&gt;GUIpfSense&lt;/div&gt;&lt;/div&gt;" style="whiteSpace=wrap;html=1;fillColor=#dae8fc;strokeColor=#6c8ebf;" parent="1" vertex="1">
          <mxGeometry x="710" y="590" width="128" height="170" as="geometry" />
        </mxCell>
        <mxCell id="WkJBR_L_8m71jJSx_A0K-1" value="" style="shape=mxgraph.cisco.computers_and_peripherals.pc;sketch=0;html=1;pointerEvents=1;dashed=0;fillColor=#036897;strokeColor=#ffffff;strokeWidth=2;verticalLabelPosition=bottom;verticalAlign=top;align=center;outlineConnect=0;" vertex="1" parent="1">
          <mxGeometry x="735" y="620" width="78" height="70" as="geometry" />
        </mxCell>
        <mxCell id="WkJBR_L_8m71jJSx_A0K-54" style="edgeStyle=orthogonalEdgeStyle;rounded=0;orthogonalLoop=1;jettySize=auto;html=1;exitX=1;exitY=0.5;exitDx=0;exitDy=0;" edge="1" parent="1" source="WkJBR_L_8m71jJSx_A0K-3">
          <mxGeometry relative="1" as="geometry">
            <mxPoint x="200" y="1050" as="targetPoint" />
          </mxGeometry>
        </mxCell>
        <mxCell id="WkJBR_L_8m71jJSx_A0K-3" value="&lt;div&gt;&lt;br&gt;&lt;/div&gt;&lt;div&gt;&lt;br&gt;&lt;/div&gt;&lt;div&gt;&lt;br&gt;&lt;/div&gt;&lt;div&gt;&lt;br&gt;&lt;/div&gt;&lt;div&gt;&lt;br&gt;&lt;/div&gt;&lt;div&gt;&lt;br&gt;&lt;/div&gt;&lt;div&gt;&lt;span style=&quot;background-color: transparent; color: light-dark(rgb(0, 0, 0), rgb(255, 255, 255));&quot;&gt;192.16.9.41&lt;/span&gt;&lt;/div&gt;&lt;div&gt;SRV-FREEPBX&lt;/div&gt;&lt;span style=&quot;background-color: transparent; color: light-dark(rgb(0, 0, 0), rgb(255, 255, 255));&quot;&gt;TAG VLAN 9&lt;/span&gt;" style="whiteSpace=wrap;html=1;fillColor=none;strokeColor=#6c8ebf;" vertex="1" parent="1">
          <mxGeometry x="30" y="1170" width="128" height="170" as="geometry" />
        </mxCell>
        <mxCell id="WkJBR_L_8m71jJSx_A0K-4" value="" style="shape=mxgraph.cisco.computers_and_peripherals.terminal;sketch=0;html=1;pointerEvents=1;dashed=0;fillColor=#036897;strokeColor=#ffffff;strokeWidth=2;verticalLabelPosition=bottom;verticalAlign=top;align=center;outlineConnect=0;" vertex="1" parent="1">
          <mxGeometry x="68" y="1200" width="61" height="54" as="geometry" />
        </mxCell>
        <mxCell id="WkJBR_L_8m71jJSx_A0K-5" value="" style="shape=mxgraph.cisco.computers_and_peripherals.terminal;sketch=0;html=1;pointerEvents=1;dashed=0;fillColor=#036897;strokeColor=#ffffff;strokeWidth=2;verticalLabelPosition=bottom;verticalAlign=top;align=center;outlineConnect=0;" vertex="1" parent="1">
          <mxGeometry x="253.5" y="998" width="61" height="54" as="geometry" />
        </mxCell>
        <mxCell id="WkJBR_L_8m71jJSx_A0K-6" value="" style="shape=mxgraph.cisco.computers_and_peripherals.terminal;sketch=0;html=1;pointerEvents=1;dashed=0;fillColor=#036897;strokeColor=#ffffff;strokeWidth=2;verticalLabelPosition=bottom;verticalAlign=top;align=center;outlineConnect=0;" vertex="1" parent="1">
          <mxGeometry x="63.5" y="1000" width="61" height="54" as="geometry" />
        </mxCell>
        <mxCell id="WkJBR_L_8m71jJSx_A0K-56" style="edgeStyle=orthogonalEdgeStyle;rounded=0;orthogonalLoop=1;jettySize=auto;html=1;exitX=0;exitY=0.5;exitDx=0;exitDy=0;" edge="1" parent="1" source="WkJBR_L_8m71jJSx_A0K-7">
          <mxGeometry relative="1" as="geometry">
            <mxPoint x="200" y="1230" as="targetPoint" />
          </mxGeometry>
        </mxCell>
        <mxCell id="WkJBR_L_8m71jJSx_A0K-7" value="&lt;div&gt;&lt;br&gt;&lt;/div&gt;&lt;div&gt;&lt;br&gt;&lt;/div&gt;&lt;div&gt;&lt;br&gt;&lt;/div&gt;&lt;div&gt;&lt;br&gt;&lt;/div&gt;&lt;div&gt;&lt;br&gt;&lt;/div&gt;&lt;div&gt;&lt;br&gt;&lt;/div&gt;&lt;div&gt;&lt;br&gt;&lt;/div&gt;192.16.9.29&lt;div&gt;&lt;div&gt;Guacamole&lt;/div&gt;&lt;/div&gt;&lt;div&gt;TAG VLAN 9&lt;/div&gt;" style="whiteSpace=wrap;html=1;fillColor=none;strokeColor=#6c8ebf;" vertex="1" parent="1">
          <mxGeometry x="225" y="1170" width="128" height="170" as="geometry" />
        </mxCell>
        <mxCell id="WkJBR_L_8m71jJSx_A0K-8" value="" style="shape=mxgraph.cisco.computers_and_peripherals.pc;sketch=0;html=1;pointerEvents=1;dashed=0;fillColor=#036897;strokeColor=#ffffff;strokeWidth=2;verticalLabelPosition=bottom;verticalAlign=top;align=center;outlineConnect=0;" vertex="1" parent="1">
          <mxGeometry x="250" y="1192" width="78" height="70" as="geometry" />
        </mxCell>
        <mxCell id="WkJBR_L_8m71jJSx_A0K-55" style="edgeStyle=orthogonalEdgeStyle;rounded=0;orthogonalLoop=1;jettySize=auto;html=1;exitX=1;exitY=0.5;exitDx=0;exitDy=0;" edge="1" parent="1" source="WkJBR_L_8m71jJSx_A0K-9">
          <mxGeometry relative="1" as="geometry">
            <mxPoint x="200" y="1240" as="targetPoint" />
          </mxGeometry>
        </mxCell>
        <mxCell id="WkJBR_L_8m71jJSx_A0K-9" value="&lt;div&gt;&lt;br&gt;&lt;/div&gt;&lt;div&gt;&lt;br&gt;&lt;/div&gt;&lt;div&gt;&lt;br&gt;&lt;/div&gt;&lt;div&gt;&lt;br&gt;&lt;/div&gt;&lt;div&gt;&lt;br&gt;&lt;/div&gt;&lt;div&gt;&lt;br&gt;&lt;/div&gt;&lt;div&gt;&lt;span style=&quot;background-color: transparent; color: light-dark(rgb(0, 0, 0), rgb(255, 255, 255));&quot;&gt;192.16.9.30&lt;/span&gt;&lt;/div&gt;&lt;div&gt;SRV-ZABBIX&lt;/div&gt;&lt;span style=&quot;background-color: transparent; color: light-dark(rgb(0, 0, 0), rgb(255, 255, 255));&quot;&gt;TAG VLAN 9&lt;/span&gt;" style="whiteSpace=wrap;html=1;fillColor=none;strokeColor=#6c8ebf;" vertex="1" parent="1">
          <mxGeometry x="32" y="1370" width="128" height="170" as="geometry" />
        </mxCell>
        <mxCell id="WkJBR_L_8m71jJSx_A0K-11" value="" style="shape=mxgraph.cisco.computers_and_peripherals.terminal;sketch=0;html=1;pointerEvents=1;dashed=0;fillColor=#036897;strokeColor=#ffffff;strokeWidth=2;verticalLabelPosition=bottom;verticalAlign=top;align=center;outlineConnect=0;" vertex="1" parent="1">
          <mxGeometry x="63.5" y="1390" width="61" height="54" as="geometry" />
        </mxCell>
        <mxCell id="WkJBR_L_8m71jJSx_A0K-13" value="" style="shape=flexArrow;endArrow=classic;startArrow=classic;html=1;rounded=0;" edge="1" parent="1" source="WkJBR_L_8m71jJSx_A0K-19">
          <mxGeometry width="100" height="100" relative="1" as="geometry">
            <mxPoint x="542.0023076923076" y="279" as="sourcePoint" />
            <mxPoint x="558.81" y="213" as="targetPoint" />
            <Array as="points">
              <mxPoint x="558.81" y="233" />
            </Array>
          </mxGeometry>
        </mxCell>
        <mxCell id="WkJBR_L_8m71jJSx_A0K-17" value="&lt;font style=&quot;font-size: 18px;&quot; face=&quot;Georgia&quot;&gt;VMBR 23&lt;/font&gt;&lt;div&gt;&lt;font face=&quot;Georgia&quot;&gt;&lt;span style=&quot;font-size: 18px;&quot;&gt;LAN VYOS&lt;/span&gt;&lt;/font&gt;&lt;/div&gt;&lt;div&gt;&lt;font face=&quot;Georgia&quot;&gt;&lt;span style=&quot;font-size: 18px;&quot;&gt;pfSense&lt;/span&gt;&lt;/font&gt;&lt;/div&gt;&lt;div&gt;&lt;font style=&quot;font-size: 18px;&quot; face=&quot;Georgia&quot;&gt;10.0.0.0/24&lt;/font&gt;&lt;/div&gt;" style="text;html=1;align=center;verticalAlign=middle;resizable=0;points=[];autosize=1;strokeColor=none;fillColor=none;" vertex="1" parent="1">
          <mxGeometry x="400" y="262" width="110" height="100" as="geometry" />
        </mxCell>
        <mxCell id="WkJBR_L_8m71jJSx_A0K-18" value="" style="shape=mxgraph.cisco.routers.router;sketch=0;html=1;pointerEvents=1;dashed=0;fillColor=#036897;strokeColor=#ffffff;strokeWidth=2;verticalLabelPosition=bottom;verticalAlign=top;align=center;outlineConnect=0;" vertex="1" parent="1">
          <mxGeometry x="518" y="447" width="78" height="53" as="geometry" />
        </mxCell>
        <mxCell id="WkJBR_L_8m71jJSx_A0K-19" value="" style="shape=mxgraph.cisco.switches.atm_fast_gigabit_etherswitch;sketch=0;html=1;pointerEvents=1;dashed=0;fillColor=#036897;strokeColor=#ffffff;strokeWidth=2;verticalLabelPosition=bottom;verticalAlign=top;align=center;outlineConnect=0;" vertex="1" parent="1">
          <mxGeometry x="525" y="280" width="64" height="64" as="geometry" />
        </mxCell>
        <mxCell id="WkJBR_L_8m71jJSx_A0K-21" value="" style="shape=flexArrow;endArrow=classic;startArrow=classic;html=1;rounded=0;exitX=0.5;exitY=0;exitDx=0;exitDy=0;exitPerimeter=0;width=8;endSize=6;" edge="1" parent="1" source="WkJBR_L_8m71jJSx_A0K-18" target="WkJBR_L_8m71jJSx_A0K-19">
          <mxGeometry width="100" height="100" relative="1" as="geometry">
            <mxPoint x="544" y="431" as="sourcePoint" />
            <mxPoint x="600" y="360" as="targetPoint" />
            <Array as="points">
              <mxPoint x="560" y="380" />
            </Array>
          </mxGeometry>
        </mxCell>
        <mxCell id="WkJBR_L_8m71jJSx_A0K-32" value="" style="shape=flexArrow;endArrow=classic;startArrow=classic;html=1;rounded=0;exitX=1;exitY=0.5;exitDx=0;exitDy=0;exitPerimeter=0;" edge="1" parent="1" target="WkJBR_L_8m71jJSx_A0K-59">
          <mxGeometry width="100" height="100" relative="1" as="geometry">
            <mxPoint x="628" y="117" as="sourcePoint" />
            <mxPoint x="780" y="110" as="targetPoint" />
            <Array as="points">
              <mxPoint x="650.81" y="120" />
            </Array>
          </mxGeometry>
        </mxCell>
        <mxCell id="WkJBR_L_8m71jJSx_A0K-34" value="" style="ellipse;shape=cloud;whiteSpace=wrap;html=1;" vertex="1" parent="1">
          <mxGeometry x="958" y="44" width="120" height="80" as="geometry" />
        </mxCell>
        <mxCell id="WkJBR_L_8m71jJSx_A0K-35" value="&lt;p&gt;&lt;span style=&quot;font-style: normal; font-variant-ligatures: normal; font-variant-caps: normal; font-weight: 400; letter-spacing: normal; orphans: 2; text-indent: 0px; text-transform: none; widows: 2; word-spacing: 0px; -webkit-text-stroke-width: 0px; white-space: nowrap; text-decoration-thickness: initial; text-decoration-style: initial; text-decoration-color: initial; float: none; background-color: light-dark(#ffffff, var(--ge-dark-color, #121212)); display: inline !important;&quot;&gt;&lt;font face=&quot;Garamond&quot; style=&quot;color: rgb(255, 51, 51); font-size: 21px;&quot;&gt;INTERNET&lt;/font&gt;&lt;/span&gt;&lt;/p&gt;" style="text;whiteSpace=wrap;html=1;fillColor=none;strokeColor=default;align=center;" vertex="1" parent="1">
          <mxGeometry x="950" y="130" width="128" height="50" as="geometry" />
        </mxCell>
        <mxCell id="WkJBR_L_8m71jJSx_A0K-36" value="" style="endArrow=none;dashed=1;html=1;rounded=0;" edge="1" parent="1">
          <mxGeometry width="50" height="50" relative="1" as="geometry">
            <mxPoint x="710" y="190" as="sourcePoint" />
            <mxPoint x="690" y="30" as="targetPoint" />
            <Array as="points">
              <mxPoint x="700" y="60" />
            </Array>
          </mxGeometry>
        </mxCell>
        <mxCell id="WkJBR_L_8m71jJSx_A0K-37" value="&lt;font face=&quot;Georgia&quot;&gt;&lt;span style=&quot;font-size: 18px;&quot;&gt;Firewall pfSense&lt;/span&gt;&lt;/font&gt;" style="text;html=1;align=center;verticalAlign=middle;resizable=0;points=[];autosize=1;strokeColor=none;fillColor=none;" vertex="1" parent="1">
          <mxGeometry x="628" y="190" width="140" height="40" as="geometry" />
        </mxCell>
        <mxCell id="WkJBR_L_8m71jJSx_A0K-59" value="" style="shape=mxgraph.cisco.switches.atm_fast_gigabit_etherswitch;sketch=0;html=1;pointerEvents=1;dashed=0;fillColor=#036897;strokeColor=#ffffff;strokeWidth=2;verticalLabelPosition=bottom;verticalAlign=top;align=center;outlineConnect=0;" vertex="1" parent="1">
          <mxGeometry x="813" y="60" width="64" height="64" as="geometry" />
        </mxCell>
        <mxCell id="WkJBR_L_8m71jJSx_A0K-60" value="" style="shape=flexArrow;endArrow=classic;startArrow=classic;html=1;rounded=0;exitX=1;exitY=0.5;exitDx=0;exitDy=0;exitPerimeter=0;" edge="1" parent="1" source="WkJBR_L_8m71jJSx_A0K-59">
          <mxGeometry width="100" height="100" relative="1" as="geometry">
            <mxPoint x="890" y="90" as="sourcePoint" />
            <mxPoint x="960" y="94" as="targetPoint" />
            <Array as="points">
              <mxPoint x="920" y="90" />
            </Array>
          </mxGeometry>
        </mxCell>
        <mxCell id="WkJBR_L_8m71jJSx_A0K-61" value="&lt;font style=&quot;font-size: 18px;&quot; face=&quot;Georgia&quot;&gt;VMBR 100&lt;/font&gt;&lt;div&gt;&lt;span style=&quot;font-size: 18px; font-family: Georgia; background-color: transparent; color: light-dark(rgb(0, 0, 0), rgb(255, 255, 255));&quot;&gt;Internet&lt;/span&gt;&lt;/div&gt;&lt;div&gt;&lt;span style=&quot;font-size: 18px; font-family: Georgia; background-color: transparent; color: light-dark(rgb(0, 0, 0), rgb(255, 255, 255));&quot;&gt;192.168.240.0/24&lt;/span&gt;&lt;/div&gt;" style="text;html=1;align=center;verticalAlign=middle;resizable=0;points=[];autosize=1;strokeColor=none;fillColor=none;" vertex="1" parent="1">
          <mxGeometry x="768" y="130" width="150" height="80" as="geometry" />
        </mxCell>
      </root>
    </mxGraphModel>
  </diagram>
</mxfile>
